<?xml version="1.0" encoding="UTF-8" standalone="no"?><svg xmlns="http://www.w3.org/2000/svg" xmlns:xlink="http://www.w3.org/1999/xlink" contentScriptType="application/ecmascript" contentStyleType="text/css" height="423px" preserveAspectRatio="none" style="width:892px;height:423px;" version="1.1" viewBox="0 0 892 423" width="892px" zoomAndPan="magnify"><defs><filter height="300%" id="ffda8q2" width="300%" x="-1" y="-1"><feGaussianBlur result="blurOut" stdDeviation="2.0"/><feColorMatrix in="blurOut" result="blurOut2" type="matrix" values="0 0 0 0 0 0 0 0 0 0 0 0 0 0 0 0 0 0 .4 0"/><feOffset dx="4.0" dy="4.0" in="blurOut2" result="blurOut3"/><feBlend in="SourceGraphic" in2="blurOut3" mode="normal"/></filter></defs><g><!--cluster DukeCon Infra--><path d="M471,321 C471,318 473,316 476,316 C479,316 481,318 481,321 C481,318 483,316 486,316 C489,316 491,318 491,321 C491,318 493,316 496,316 C499,316 501,318 501,321 C501,318 503,316 506,316 C509,316 511,318 511,321 C511,318 513,316 516,316 C519,316 521,318 521,321 C521,318 523,316 526,316 C529,316 531,318 531,321 C531,318 533,316 536,316 C539,316 541,318 541,321 C541,318 543,316 546,316 C549,316 551,318 551,321 C551,318 553,316 556,316 C559,316 561,318 561,321 C561,318 563,316 566,316 C569,316 571,318 571,321 C571,318 573,316 576,316 C579,316 581,318 581,321 C581,318 583,316 586,316 C589,316 591,318 591,321 C594,321 596,323 596,326 C596,329 594,331 591,331 C594,331 596,333 596,336 C596,339 594,341 591,341 C594,341 596,343 596,346 C596,349 594,351 591,351 C594,351 596,353 596,356 C596,359 594,361 591,361 C594,361 596,363 596,366 C596,369 594,371 591,371 C594,371 596,373 596,376 C596,379 594,381 591,381 C594,381 596,383 596,386 C596,389 594,391 591,391 C594,391 596,393 596,396 C596,399 594,401 591,401 C594,401 596,403 596,406 C596,409 594,411 591,411 C591,414 588,416 586,416 C583,416 581,414 581,411 C581,414 578,416 576,416 C573,416 571,414 571,411 C571,414 568,416 566,416 C563,416 561,414 561,411 C561,414 558,416 556,416 C553,416 551,414 551,411 C551,414 548,416 546,416 C543,416 541,414 541,411 C541,414 538,416 536,416 C533,416 531,414 531,411 C531,414 528,416 526,416 C523,416 521,414 521,411 C521,414 518,416 516,416 C513,416 511,414 511,411 C511,414 508,416 506,416 C503,416 501,414 501,411 C501,414 498,416 496,416 C493,416 491,414 491,411 C491,414 488,416 486,416 C483,416 481,414 481,411 C481,414 478,416 476,416 C473,416 471,414 471,411 C468,411 466,409 466,406 C466,403 468,401 471,401 C468,401 466,399 466,396 C466,393 468,391 471,391 C468,391 466,389 466,386 C466,383 468,381 471,381 C468,381 466,379 466,376 C466,373 468,371 471,371 C468,371 466,369 466,366 C466,363 468,361 471,361 C468,361 466,359 466,356 C466,353 468,351 471,351 C468,351 466,349 466,346 C466,343 468,341 471,341 C468,341 466,339 466,336 C466,333 468,331 471,331 C468,331 466,329 466,326 C466,323 468,321 471,321 " fill="#D3D3D3" filter="url(#ffda8q2)" style="stroke: #000000; stroke-width: 2.0;"/><text fill="#000000" font-family="sans-serif" font-size="14" font-weight="bold" lengthAdjust="spacingAndGlyphs" textLength="100" x="478" y="341.5332">DukeCon Infra</text><!--cluster DOAG Infra--><path d="M25,164 C25,161 27,159 30,159 C33,159 35,161 35,164 C35,161 37,159 40,159 C43,159 45,161 45,164 C45,161 47,159 50,159 C53,159 55,161 55,164 C55,161 57,159 60,159 C63,159 65,161 65,164 C65,161 67,159 70,159 C73,159 75,161 75,164 C75,161 77,159 80,159 C83,159 85,161 85,164 C85,161 87,159 90,159 C93,159 95,161 95,164 C95,161 97,159 100,159 C103,159 105,161 105,164 C105,161 107,159 110,159 C113,159 115,161 115,164 C115,161 117,159 120,159 C123,159 125,161 125,164 C125,161 127,159 130,159 C133,159 135,161 135,164 C135,161 137,159 140,159 C143,159 145,161 145,164 C145,161 147,159 150,159 C153,159 155,161 155,164 C155,161 157,159 160,159 C163,159 165,161 165,164 C165,161 167,159 170,159 C173,159 175,161 175,164 C175,161 177,159 180,159 C183,159 185,161 185,164 C185,161 187,159 190,159 C193,159 195,161 195,164 C195,161 197,159 200,159 C203,159 205,161 205,164 C205,161 207,159 210,159 C213,159 215,161 215,164 C215,161 217,159 220,159 C223,159 225,161 225,164 C225,161 227,159 230,159 C233,159 235,161 235,164 C235,161 237,159 240,159 C243,159 245,161 245,164 C245,161 247,159 250,159 C253,159 255,161 255,164 C255,161 257,159 260,159 C263,159 265,161 265,164 C265,161 267,159 270,159 C273,159 275,161 275,164 C275,161 277,159 280,159 C283,159 285,161 285,164 C285,161 287,159 290,159 C293,159 295,161 295,164 C295,161 297,159 300,159 C303,159 305,161 305,164 C305,161 307,159 310,159 C313,159 315,161 315,164 C315,161 317,159 320,159 C323,159 325,161 325,164 C325,161 327,159 330,159 C333,159 335,161 335,164 C335,161 337,159 340,159 C343,159 345,161 345,164 C345,161 347,159 350,159 C353,159 355,161 355,164 C355,161 357,159 360,159 C363,159 365,161 365,164 C365,161 367,159 370,159 C373,159 375,161 375,164 C375,161 377,159 380,159 C383,159 385,161 385,164 C385,161 387,159 390,159 C393,159 395,161 395,164 C395,161 397,159 400,159 C403,159 405,161 405,164 C405,161 407,159 410,159 C413,159 415,161 415,164 C415,161 417,159 420,159 C423,159 425,161 425,164 C425,161 427,159 430,159 C433,159 435,161 435,164 C435,161 437,159 440,159 C443,159 445,161 445,164 C445,161 447,159 450,159 C453,159 455,161 455,164 C455,161 457,159 460,159 C463,159 465,161 465,164 C465,161 467,159 470,159 C473,159 475,161 475,164 C475,161 477,159 480,159 C483,159 485,161 485,164 C485,161 487,159 490,159 C493,159 495,161 495,164 C495,161 497,159 500,159 C503,159 505,161 505,164 C505,161 507,159 510,159 C513,159 515,161 515,164 C518,164 520,166 520,169 C520,172 518,174 515,174 C518,174 520,176 520,179 C520,182 518,184 515,184 C518,184 520,186 520,189 C520,192 518,194 515,194 C518,194 520,196 520,199 C520,202 518,204 515,204 C518,204 520,206 520,209 C520,212 518,214 515,214 C518,214 520,216 520,219 C520,222 518,224 515,224 C518,224 520,226 520,229 C520,232 518,234 515,234 C518,234 520,236 520,239 C520,242 518,244 515,244 C518,244 520,246 520,249 C520,252 518,254 515,254 C515,257 512,259 510,259 C507,259 505,257 505,254 C505,257 502,259 500,259 C497,259 495,257 495,254 C495,257 492,259 490,259 C487,259 485,257 485,254 C485,257 482,259 480,259 C477,259 475,257 475,254 C475,257 472,259 470,259 C467,259 465,257 465,254 C465,257 462,259 460,259 C457,259 455,257 455,254 C455,257 452,259 450,259 C447,259 445,257 445,254 C445,257 442,259 440,259 C437,259 435,257 435,254 C435,257 432,259 430,259 C427,259 425,257 425,254 C425,257 422,259 420,259 C417,259 415,257 415,254 C415,257 412,259 410,259 C407,259 405,257 405,254 C405,257 402,259 400,259 C397,259 395,257 395,254 C395,257 392,259 390,259 C387,259 385,257 385,254 C385,257 382,259 380,259 C377,259 375,257 375,254 C375,257 372,259 370,259 C367,259 365,257 365,254 C365,257 362,259 360,259 C357,259 355,257 355,254 C355,257 352,259 350,259 C347,259 345,257 345,254 C345,257 342,259 340,259 C337,259 335,257 335,254 C335,257 332,259 330,259 C327,259 325,257 325,254 C325,257 322,259 320,259 C317,259 315,257 315,254 C315,257 312,259 310,259 C307,259 305,257 305,254 C305,257 302,259 300,259 C297,259 295,257 295,254 C295,257 292,259 290,259 C287,259 285,257 285,254 C285,257 282,259 280,259 C277,259 275,257 275,254 C275,257 272,259 270,259 C267,259 265,257 265,254 C265,257 262,259 260,259 C257,259 255,257 255,254 C255,257 252,259 250,259 C247,259 245,257 245,254 C245,257 242,259 240,259 C237,259 235,257 235,254 C235,257 232,259 230,259 C227,259 225,257 225,254 C225,257 222,259 220,259 C217,259 215,257 215,254 C215,257 212,259 210,259 C207,259 205,257 205,254 C205,257 202,259 200,259 C197,259 195,257 195,254 C195,257 192,259 190,259 C187,259 185,257 185,254 C185,257 182,259 180,259 C177,259 175,257 175,254 C175,257 172,259 170,259 C167,259 165,257 165,254 C165,257 162,259 160,259 C157,259 155,257 155,254 C155,257 152,259 150,259 C147,259 145,257 145,254 C145,257 142,259 140,259 C137,259 135,257 135,254 C135,257 132,259 130,259 C127,259 125,257 125,254 C125,257 122,259 120,259 C117,259 115,257 115,254 C115,257 112,259 110,259 C107,259 105,257 105,254 C105,257 102,259 100,259 C97,259 95,257 95,254 C95,257 92,259 90,259 C87,259 85,257 85,254 C85,257 82,259 80,259 C77,259 75,257 75,254 C75,257 72,259 70,259 C67,259 65,257 65,254 C65,257 62,259 60,259 C57,259 55,257 55,254 C55,257 52,259 50,259 C47,259 45,257 45,254 C45,257 42,259 40,259 C37,259 35,257 35,254 C35,257 32,259 30,259 C27,259 25,257 25,254 C22,254 20,252 20,249 C20,246 22,244 25,244 C22,244 20,242 20,239 C20,236 22,234 25,234 C22,234 20,232 20,229 C20,226 22,224 25,224 C22,224 20,222 20,219 C20,216 22,214 25,214 C22,214 20,212 20,209 C20,206 22,204 25,204 C22,204 20,202 20,199 C20,196 22,194 25,194 C22,194 20,192 20,189 C20,186 22,184 25,184 C22,184 20,182 20,179 C20,176 22,174 25,174 C22,174 20,172 20,169 C20,166 22,164 25,164 " fill="#FFFFFF" filter="url(#ffda8q2)" style="stroke: #000000; stroke-width: 2.0;"/><text fill="#000000" font-family="sans-serif" font-size="14" font-weight="bold" lengthAdjust="spacingAndGlyphs" textLength="77" x="233" y="184.5332">DOAG Infra</text><!--entity DukeCon--><polygon fill="#008000" filter="url(#ffda8q2)" points="484,350,484,349.6548,493.7778,350.485,503.5556,349.8704,513.3333,349.5589,523.1111,349.7631,532.8889,349.3384,542.6667,349.5668,552.4444,349.5609,562.2222,350.1263,572,350,572.563,350,571.8142,359.2031,571.944,368.4063,571.6143,377.6094,571.3341,386.8125,571.8199,396.0156,572,405.2188,572,404.4972,562.2222,405.7401,552.4444,405.092,542.6667,405.1901,532.8889,405.885,523.1111,405.1477,513.3333,405.6392,503.5556,405.0265,493.7778,405.0509,484,405.2188,483.8714,405.2188,484.3437,396.0156,483.7763,386.8125,483.9699,377.6094,483.519,368.4063,483.3944,359.2031,484,350" style="stroke: #A80036; stroke-width: 1.5;"/><polygon fill="#008000" points="479,355,479,355.0248,481,355.2092,483,355.1156,485,355.0948,487,355.2039,489,355,489.208,355,488.8653,356,489.0431,357,489.2291,358,489.2155,359,489,360,489,360.2476,487,360.1246,485,359.7881,483,359.9299,481,359.8947,479,360,479.0326,360,479.0814,359,478.7872,358,478.9719,357,478.856,356,479,355" style="stroke: #A80036; stroke-width: 1.5;"/><polygon fill="#008000" points="479,395.2188,479,395.3486,481,395.1541,483,395.2614,485,395.2513,487,395.3886,489,395.2188,489.0163,395.2188,489.1218,396.2188,489.0493,397.2188,489.2462,398.2188,489.172,399.2188,489,400.2188,489,400.1205,487,400.4532,485,400.1689,483,400.1968,481,400.3139,479,400.2188,479.0799,400.2188,479.2085,399.2188,478.7897,398.2188,479.1591,397.2188,478.8657,396.2188,479,395.2188" style="stroke: #A80036; stroke-width: 1.5;"/><text fill="#000000" font-family="sans-serif" font-size="14" font-style="italic" lengthAdjust="spacingAndGlyphs" textLength="68" x="494" y="374.5332">«Platform»</text><text fill="#000000" font-family="sans-serif" font-size="14" lengthAdjust="spacingAndGlyphs" textLength="59" x="498.5" y="392.1426">DukeCon</text><!--entity Formes--><polygon fill="#90EE90" filter="url(#ffda8q2)" points="417,193,417,193.2615,426.7778,193.7255,436.5556,192.5308,446.3333,192.7747,456.1111,193.739,465.8889,192.682,475.6667,193.1404,485.4444,193.5539,495.2222,192.8952,505,193,505.7187,193,504.5715,202.2031,505.4739,211.4063,505.126,220.6094,505.0379,229.8125,504.7582,239.0156,505,248.2188,505,247.6972,495.2222,247.8573,485.4444,247.995,475.6667,247.8532,465.8889,247.7894,456.1111,248.7216,446.3333,248.6733,436.5556,248.6095,426.7778,247.7422,417,248.2188,416.4019,248.2188,417.1164,239.0156,416.8506,229.8125,417.6098,220.6094,416.97,211.4063,417.5584,202.2031,417,193" style="stroke: #A80036; stroke-width: 1.5;"/><polygon fill="#90EE90" points="412,198,412,198.2498,414,198.1454,416,197.9703,418,198.1557,420,197.7862,422,198,421.9289,198,422.2451,199,422.2125,200,422.0468,201,421.9702,202,422,203,422,202.9727,420,203.0884,418,202.8116,416,203.1376,414,202.8581,412,203,411.8553,203,412.0272,202,411.7817,201,411.7917,200,412.0701,199,412,198" style="stroke: #A80036; stroke-width: 1.5;"/><polygon fill="#90EE90" points="412,238.2188,412,238.3351,414,238.1259,416,238.1786,418,238.1248,420,238.4192,422,238.2188,422.0101,238.2188,422.2435,239.2188,422.0342,240.2188,421.9215,241.2188,421.95,242.2188,422,243.2188,422,243.1457,420,243.2586,418,243.337,416,243.0251,414,243.2672,412,243.2188,412.1741,243.2188,412.0451,242.2188,411.9889,241.2188,412.1454,240.2188,412.2338,239.2188,412,238.2188" style="stroke: #A80036; stroke-width: 1.5;"/><text fill="#000000" font-family="sans-serif" font-size="14" font-style="italic" lengthAdjust="spacingAndGlyphs" textLength="68" x="427" y="217.5332">«Platform»</text><text fill="#000000" font-family="sans-serif" font-size="14" lengthAdjust="spacingAndGlyphs" textLength="48" x="437" y="235.1426">Formes</text><!--entity Vortragsplaner--><polygon fill="#FF0000" filter="url(#ffda8q2)" points="197,193,197,193.3161,207.3636,192.7521,217.7273,193.5429,228.0909,192.533,238.4545,193.6677,248.8182,192.6213,259.1818,193.2231,269.5455,192.6524,279.9091,192.9358,290.2727,193.4416,300.6364,193.0316,311,193,311.7124,193,311.046,202.2031,310.541,211.4063,311.1855,220.6094,310.9892,229.8125,310.7654,239.0156,311,248.2188,311,248.9548,300.6364,248.5874,290.2727,248.6666,279.9091,247.9624,269.5455,248.9225,259.1818,248.9319,248.8182,248.8068,238.4545,248.4103,228.0909,248.0378,217.7273,248.4748,207.3636,248.2655,197,248.2188,197.368,248.2188,197.655,239.0156,197.557,229.8125,197.547,220.6094,197.5347,211.4063,197.6155,202.2031,197,193" style="stroke: #A80036; stroke-width: 1.5;"/><polygon fill="#FF0000" points="192,198,192,197.7944,194,197.783,196,197.8701,198,198.2179,200,197.9697,202,198,202.1244,198,201.7999,199,202.2355,200,201.9192,201,202.0479,202,202,203,202,202.9996,200,202.7877,198,202.9674,196,202.8713,194,202.9285,192,203,191.9593,203,191.8306,202,191.7753,201,191.925,200,191.8066,199,192,198" style="stroke: #A80036; stroke-width: 1.5;"/><polygon fill="#FF0000" points="192,238.2188,192,238.0536,194,238.444,196,238.083,198,238.0369,200,237.9967,202,238.2188,201.7821,238.2188,201.9482,239.2188,202.1166,240.2188,201.8054,241.2188,201.9007,242.2188,202,243.2188,202,243.3135,200,243.1161,198,243.1721,196,243.2645,194,243.0091,192,243.2188,192.138,243.2188,191.8981,242.2188,192.1666,241.2188,192.0285,240.2188,191.8768,239.2188,192,238.2188" style="stroke: #A80036; stroke-width: 1.5;"/><text fill="#000000" font-family="sans-serif" font-size="14" font-style="italic" lengthAdjust="spacingAndGlyphs" textLength="68" x="220" y="217.5332">«Platform»</text><text fill="#000000" font-family="sans-serif" font-size="14" lengthAdjust="spacingAndGlyphs" textLength="94" x="207" y="235.1426">Vortragsplaner</text><polygon fill="#FBFB77" filter="url(#ffda8q2)" points="38.5,207.5,38.4569,207.5,38.2745,212.7703,38.5705,218.0406,38.3666,223.3109,38.4867,228.5813,38.5,233.8516,38.5,233.9905,48.3889,234.5886,58.2778,234.2845,68.1667,234.0064,78.0556,233.9959,87.9444,233.3678,97.8333,233.9463,107.7222,234.018,117.6111,233.3169,127.5,233.8516,127.3099,233.8516,127.2865,230.5813,127.4706,227.3109,127.7167,224.0406,127.6468,220.7703,127.5,217.5,127.5483,217.5483,125.3899,215.3899,123.476,213.476,121.5431,211.5431,119.5363,209.5363,117.5,207.5,117.5,207.2521,107.625,207.8488,97.75,207.5383,87.875,207.3083,78,207.3682,68.125,207.5054,58.25,208.0552,48.375,208.24,38.5,207.5" style="stroke: #A80036; stroke-width: 1.0;"/><polygon fill="#FBFB77" points="38.5,207.5,38.2708,207.5,38.5382,212.7703,38.5127,218.0406,38.6843,223.3109,38.3819,228.5813,38.5,233.8516,38.5,234.3262,48.3889,234.5422,58.2778,233.6081,68.1667,233.5052,78.0556,233.1365,87.9444,234.1729,97.8333,233.9917,107.7222,233.15,117.6111,234.0797,127.5,233.8516,127.6134,233.8516,127.5265,232.1813,127.7447,230.5109,127.3357,228.8406,127.6834,227.1703,127.5,225.5,127.5424,226.1527,137.4218,225.2019,147.3343,224.7595,157.2058,223.6866,167.137,223.5336,177.0211,222.6546,186.9298,222.1551,196.796,221,196.8222,221.5191,186.8727,220.0271,177.0009,220.0751,167.1328,220.195,157.2166,219.3618,147.3092,218.7041,137.4361,218.7261,127.5,217.5,127.4135,217.4135,125.4832,215.4832,123.5825,213.5825,121.4146,211.4146,119.4251,209.4251,117.5,207.5,117.5,207.1598,107.625,207.3474,97.75,207.0124,87.875,207.97,78,206.8924,68.125,206.8751,58.25,207.0282,48.375,207.8689,38.5,207.5" style="stroke: #A80036; stroke-width: 1.0;"/><path d="M117.5,207.5 L117.7596,207.5 L117.7627,209.5 L117.3437,211.5 L117.4147,213.5 L117.3424,215.5 L117.5,217.5 " fill="#FBFB77" style="stroke: #A80036; stroke-width: 1.0;"/><path d="M127.5,217.5 L127.5,217.7928 L125.5,217.305 L123.5,217.4272 L121.5,217.4968 L119.5,217.7948 L117.5,217.5 " fill="#FBFB77" style="stroke: #A80036; stroke-width: 1.0;"/><text fill="#000000" font-family="sans-serif" font-size="13" lengthAdjust="spacingAndGlyphs" textLength="68" x="44.5" y="225.9951">switched off</text><!--entity participant--><polygon fill="#FEFECE" filter="url(#ffda8q2)" points="431.1846,19.8358,430.1211,21.7236,428.9903,22.8202,427.9956,23.7547,426.0671,24.9675,424.0309,25.9301,422.0475,26.3551,420.3893,25.0411,418.9225,24.6861,417.1209,23.675,416.3238,21.777,415.056,19.5888,414.9555,18.0656,415.1336,15.4204,416.2182,13.7086,417.5532,12.2781,419.6224,11.0516,421.0903,10.6869,422.9761,10.4562,424.7747,10.2773,426.3273,10.8778,427.8761,12.1742,429.4918,13.1145,430.738,14.9042,430.9039,17.6659,430.8164,19.1252" style="stroke: #A80036; stroke-width: 2.0;"/><path d="M423,26 L423.3978,26 L422.6501,31.4 L423.6379,36.8 L422.5126,42.2 L422.4617,47.6 L423,53 M410,34 L410,33.5751 L415.2,34.2489 L420.4,34.1666 L425.6,34.2798 L430.8,33.9748 L436,34 M423,53 L422.8607,52.8793 L420.017,55.6681 L417.6726,58.8896 L414.7499,61.6099 L412.8136,65.1851 L410,68 M423,53 L422.7602,52.7922 L425.1591,55.6179 L427.9927,58.8204 L430.5177,61.7554 L433.2896,64.9043 L436,68 " fill="#FEFECE" style="stroke: #A80036; stroke-width: 2.0;"/><text fill="#000000" font-family="sans-serif" font-size="14" lengthAdjust="spacingAndGlyphs" textLength="145" x="350.5" y="89.5332">Conference Participant</text><!--entity backofficer--><polygon fill="#FEFECE" filter="url(#ffda8q2)" points="289.7979,347.0757,289.1004,348.5098,287.9098,350.4391,285.9458,352.4174,283.874,352.5719,281.4752,353.0133,280.1598,352.4959,277.8615,351.8885,276.3359,350.7682,274.64,349.2365,274.4194,346.9892,273.5743,344.7214,274.6574,342.9216,274.9184,340.6168,276.486,338.6986,277.8736,337.8024,279.6808,336.9022,282.1891,337.2289,284.7958,337.7506,286.0626,338.6122,287.4852,339.6353,288.6785,341.2528,290.1677,342.8141,290.1684,345.3233" style="stroke: #A80036; stroke-width: 2.0;"/><path d="M282,353 L281.3926,353 L281.5254,358.4 L281.7314,363.8 L282.3237,369.2 L282.2817,374.6 L282,380 M269,361 L269,361.5215 L274.2,361.1416 L279.4,360.4154 L284.6,361.1037 L289.8,360.7166 L295,361 M282,380 L282.4222,380.3659 L279.3548,382.9608 L276.6873,385.9024 L274.0296,388.8524 L271.3895,391.8176 L269,395 M282,380 L281.7663,379.7975 L284.3727,382.803 L286.8721,385.7158 L289.6629,388.8812 L292.3582,391.9637 L295,395 " fill="#FEFECE" style="stroke: #A80036; stroke-width: 2.0;"/><text fill="#000000" font-family="sans-serif" font-size="14" lengthAdjust="spacingAndGlyphs" textLength="78" x="243" y="416.5332">Back-Officer</text><path d="M495.82,51 L495.82,50.9015 L504.356,50.7766 L512.892,50.7311 L521.428,50.9065 L529.964,51.0457 L538.5,51 L539.1577,51 L539.0297,61.136 L539.0951,71.272 L537.5272,81.408 L538.359,91.544 L538.8314,101.68 L538.0245,111.816 L537.5645,121.952 L537.9717,132.0881 L538.1388,142.2241 L539.4326,152.3601 L539.1338,162.4961 L537.782,172.6321 L537.5798,182.7681 L537.9386,192.9041 L538.9409,203.0401 L538.9488,213.1761 L538.5792,223.3121 L538.7429,233.4481 L538.1234,243.5841 L538.064,253.7201 L538.9992,263.8561 L537.7283,273.9922 L537.8868,284.1282 L538.9903,294.2642 L538.039,304.4002 L539.3675,314.5362 L539.1405,324.6722 L539.0536,334.8082 L538.5,344.9442 " fill="none" style="stroke: #A80036; stroke-width: 1.0;"/><polygon fill="#A80036" points="538.5,349.9442,538.6431,350.0078,539.524,348.2438,540.325,346.4442,540.9761,344.578,541.7857,342.7823,542.5,340.9442,542.3714,340.8156,541.6483,341.6925,541.0595,342.7037,540.1824,343.4266,539.1956,344.0398,538.5,344.9442,538.3578,344.802,537.8627,344.3069,536.8142,343.2584,536.1276,342.5718,535.1871,341.6313,534.5,340.9442,534.6022,340.9896,535.2226,342.7098,536.0526,344.5232,536.9661,346.3736,537.8812,348.2247,538.5,349.9442" style="stroke: #A80036; stroke-width: 1.0;"/><text fill="#000000" font-family="sans-serif" font-size="13" lengthAdjust="spacingAndGlyphs" textLength="315" x="576" y="225.9951">Read/Compile conference program (via DukeCon apps)</text><path d="M383.75,93.264 L383.4373,93.264 L383.4315,103.6036 L383.1445,113.9433 L383.7964,124.2829 L382.7676,134.6225 L383.1581,144.9622 L384.6005,155.3018 L383.9938,165.6415 L384.6609,175.9811 L383.2098,186.3207 L382.7625,196.6604 L383.75,207 L383.75,207.3599 L374.1126,207.5615 L364.4751,206.8367 L354.8377,206.9095 L345.2003,206.4737 L335.5629,207.6691 L325.9254,207.3892 L316.288,207 " fill="none" style="stroke: #A80036; stroke-width: 1.0;"/><polygon fill="#A80036" points="311.288,207,311.2579,206.9322,313.1461,207.9307,314.8185,208.4436,316.7893,209.628,318.5139,210.2583,320.288,211,320.1996,210.9116,319.6123,210.3243,318.8609,209.5729,317.8227,208.5347,317.0069,207.7189,316.288,207,316.3704,207.0824,316.9619,206.0739,317.797,205.309,318.6966,204.6086,319.4618,203.7738,320.288,203,320.3145,203.0597,318.4732,203.7667,316.6244,204.457,314.7973,205.196,313.0551,206.1259,311.288,207" style="stroke: #A80036; stroke-width: 1.0;"/><text fill="#000000" font-family="sans-serif" font-size="13" lengthAdjust="spacingAndGlyphs" textLength="260" x="273" y="137.4951">Read/Compile conference program (old style)</text><path d="M316.112,221 L316.112,221.8438 L326.188,221.1809 L336.264,220.8656 L346.34,221.9336 L356.416,221.1777 L366.492,221.9125 L376.568,220.235 L386.644,220.1555 L396.72,220.4095 L406.796,221.8936 L416.872,221 " fill="none" style="stroke: #A80036; stroke-width: 1.0;"/><polygon fill="#A80036" points="311.112,221,311.1761,221.1442,312.8928,221.7569,314.7055,222.5853,316.5254,223.43,318.3303,224.2411,320.112,225,320.1783,225.0663,319.4322,224.3202,318.5884,223.4764,317.8405,222.7285,316.955,221.843,316.112,221,316.2033,221.0913,316.9002,220.1882,317.7381,219.4261,318.4858,218.5738,319.3319,217.8199,320.112,217,320.1694,217.1292,318.3879,217.9707,316.5714,218.7337,314.7055,219.3853,312.8442,220.0474,311.112,221" style="stroke: #A80036; stroke-width: 1.0;"/><path d="M494.5,248.207 L494.557,248.207 L495.1167,257.8669 L494.1758,267.5269 L494.0574,277.1868 L494.8208,286.8467 L494.8623,296.5067 L493.752,306.1666 L494.0275,315.8265 L494.8462,325.4864 L495.1659,335.1464 L494.5,344.8063 " fill="none" style="stroke: #A80036; stroke-width: 1.0;"/><polygon fill="#A80036" points="494.5,349.8063,494.7201,349.9041,495.0904,347.9132,495.9297,346.1306,496.7224,344.3274,497.7327,342.6208,498.5,340.8063,498.4731,340.7794,497.8653,341.7716,496.9142,342.4205,496.0872,343.1935,495.2693,343.9756,494.5,344.8063,494.629,344.9353,493.579,343.8853,492.9774,343.2837,492.1114,342.4177,491.3031,341.6094,490.5,340.8063,490.3139,340.7236,491.2518,342.5849,492.1027,344.4075,492.8967,346.2048,493.517,347.9249,494.5,349.8063" style="stroke: #A80036; stroke-width: 1.0;"/><text fill="#000000" font-family="sans-serif" font-size="13" lengthAdjust="spacingAndGlyphs" textLength="69" x="482" y="294.4951">Data Export</text><path d="M411.707,235 L411.707,234.9127 L402.1363,234.0676 L392.5656,235.8651 L382.9949,234.6138 L373.4242,235.1686 L363.8535,235.5921 L354.2828,234.4162 L344.7121,235.9006 L335.1414,235.155 L325.5707,234.3907 L316,235 L315.3221,235 L315.6421,244.9745 L316.0106,254.949 L316.3603,264.9235 L316.5076,274.898 L315.2471,284.8725 L315.8012,294.847 L316.5835,304.8215 L316.1731,314.796 L316.6667,324.7705 L316,334.745 " fill="none" style="stroke: #A80036; stroke-width: 1.0;"/><polygon fill="#A80036" points="416.707,235,416.6397,234.8485,414.8772,234.1329,413.1631,233.5263,411.3148,232.6176,409.5021,231.7889,407.707,231,407.6927,230.9857,408.5175,231.8105,409.1631,232.4561,410.1772,233.4702,410.7785,234.0715,411.707,235,411.6306,234.9236,410.8116,235.7046,410.1189,236.6119,409.3833,237.4763,408.5293,238.2223,407.707,239,407.7229,239.0357,409.5339,238.2605,411.2305,237.2278,413.1414,236.6775,414.8595,235.6932,416.707,235" style="stroke: #A80036; stroke-width: 1.0;"/><text fill="#000000" font-family="sans-serif" font-size="13" lengthAdjust="spacingAndGlyphs" textLength="157" x="283" y="294.4951">Maintain JavaLand program</text></g></svg>